<svg width="284" height="86" viewBox="0 0 284 86" fill="none" xmlns="http://www.w3.org/2000/svg">
<path d="M1.1 51L15.2 14.5H20.7L34.8 51H29.15L26.2 43.2H9.7L6.8 51H1.1ZM17.95 21.3L11.65 38H24.25L17.95 21.3ZM39.4387 51V14.5H44.9387V51H39.4387ZM52.3582 51V14.5H66.5582C74.5082 14.5 79.6582 19.65 79.6582 26.7C79.6582 31.25 77.1082 35.6 72.6082 37.5L80.3582 51H74.1582L67.5582 38.95H57.7582V51H52.3582ZM66.1082 19.55H57.7582V33.95H66.1082C71.6582 33.95 74.2082 30.4 74.2082 26.55C74.2082 22.4 71.4582 19.55 66.1082 19.55ZM166.335 51V14.5H171.835V51H166.335ZM179.255 51V14.5H189.855C201.705 14.5 209.005 22.4 209.005 32.75C209.005 43.15 201.005 51 190.055 51H179.255ZM189.305 19.5H184.705V45.95H189.505C197.905 45.95 203.505 40.25 203.505 32.75C203.505 25.1 198.455 19.5 189.305 19.5ZM232.983 51.5C221.983 51.5 214.033 42.95 214.033 32.75C214.033 22.35 221.983 14 232.933 14C239.783 14 245.083 17.05 248.533 21.85L243.933 25.05C241.483 21.35 237.733 19.2 232.933 19.2C225.033 19.2 219.483 25.35 219.483 32.75C219.483 40.2 225.133 46.25 232.983 46.25C239.883 46.25 244.233 42.05 245.383 36.15H232.283V31H251.083V32.95C251.083 42.85 244.333 51.5 232.983 51.5ZM256.77 51V14.5H280.67V19.7H262.12V30.1H280.67V35.3H262.12V45.75H280.67V51H256.77Z" fill="white"/>
<path d="M120 14.075C123.807 14.061 127.611 14.0469 131.532 14.0329C133.328 14.0223 133.328 14.0223 135.159 14.0118C136.113 14.0083 137.064 14.0083 138.019 14.0048C138.384 14.0048 138.384 14.0048 138.76 14.0013C143.735 13.9661 148.238 14.6547 152.045 18.1571C152.642 18.7437 152.642 18.7437 153 19.3445C152.979 20.0471 152.979 20.0471 152.645 20.7497C151.96 21.3609 151.96 21.3609 151.116 21.9124C150.839 22.0986 150.562 22.2883 150.275 22.4815C149.452 22.8574 149.452 22.8574 148.703 22.8153C147.88 22.4359 147.518 22.0108 146.968 21.2977C146.212 20.3246 145.641 19.8082 144.484 19.3445C143.536 19.2285 143.536 19.2285 142.5 19.2321C142.099 19.225 141.702 19.218 141.294 19.211C140.652 19.2039 140.652 19.2039 139.999 19.2004C139.339 19.1899 139.339 19.1899 138.668 19.1794C137.504 19.1618 136.34 19.1477 135.176 19.1337C133.984 19.1196 132.795 19.1021 131.607 19.0845C129.275 19.0494 126.944 19.0213 124.613 18.9932C124.613 23.3984 124.613 27.8037 124.613 32.3424C129.765 32.3424 134.917 32.3424 140.226 32.3424C139.91 33.5965 139.704 34.0849 138.963 35.065C138.799 35.2793 138.64 35.4971 138.473 35.7184C138.285 35.9608 138.285 35.9608 138.097 36.2067C139.988 40.1026 142.486 43.6542 145.105 47.1004C145.293 47.3533 145.485 47.6062 145.683 47.8697C145.854 48.0945 146.024 48.3159 146.201 48.5477C146.634 49.2363 146.815 49.8159 146.968 50.6098C145.165 50.9822 143.402 51.2597 141.645 50.6098C139.985 49.2327 138.941 47.2585 137.863 45.4282C137.178 44.29 136.411 43.215 135.634 42.1366C135.396 41.7923 135.159 41.4515 134.917 41.1002C134.676 40.7595 134.438 40.4222 134.194 40.0709C134.023 39.7442 134.023 39.7442 133.849 39.407C133.431 38.6693 133.076 38.1599 132.419 37.6119C131.078 37.2606 129.786 37.2676 128.406 37.2816C126.529 37.2711 126.529 37.2711 124.613 37.2606C124.613 41.6658 124.613 46.0711 124.613 50.6098C123.091 50.6098 121.568 50.6098 120 50.6098C120 38.5533 120 26.4969 120 14.075Z" fill="white"/>
<path d="M88.0238 14.0618C89.5378 14.0441 91.0518 14.0299 92.5692 14.0228C93.0831 14.0193 93.5969 14.0157 94.1108 14.0086C98.3665 13.9589 102.132 14.0299 105.612 16.9002C107.681 19.3838 108.147 21.4487 108.126 24.6667C107.978 26.3023 107.381 27.5299 106.647 28.9633C106.412 29.5523 106.181 30.1448 105.957 30.7373C106.154 30.8508 106.35 30.9608 106.55 31.0779C109.013 32.6071 110.896 34.6259 111.82 37.4784C112.147 42.9955 112.147 42.9955 110.785 45.284C110.654 45.511 110.523 45.7381 110.389 45.9723C108.978 48.1827 106.757 50.0241 104.274 50.8117C103.484 50.9714 102.767 51.0033 101.963 50.9997C101.65 50.9997 101.339 50.9997 101.022 50.9997C100.687 50.9997 100.356 50.9962 100.015 50.9962C99.6701 50.9962 99.3287 50.9926 98.9769 50.9926C97.8837 50.9926 96.7904 50.9891 95.6972 50.982C94.9557 50.982 94.2142 50.9785 93.4728 50.9785C91.6553 50.9749 89.8413 50.9678 88.0238 50.9607C88.0238 49.4386 88.0238 47.9166 88.0238 46.3484C88.4377 46.3448 88.8515 46.3377 89.2792 46.3342C90.8242 46.3129 92.3692 46.2845 93.9142 46.2561C94.5798 46.2419 95.2489 46.2348 95.9145 46.2242C96.8766 46.2135 97.8388 46.1958 98.801 46.1745C99.0976 46.1745 99.3907 46.171 99.6942 46.1674C101.805 46.1142 103.946 45.8658 105.557 44.3189C105.681 44.1096 105.805 43.9038 105.936 43.6874C106.133 43.3752 106.133 43.3752 106.333 43.0558C107.081 41.6047 107.206 40.15 106.992 38.5428C106.209 36.9888 105.329 35.9173 103.888 34.9949C102.705 34.782 101.536 34.7891 100.336 34.7926C99.9943 34.7855 99.6528 34.782 99.3045 34.7749C98.2147 34.7607 97.1284 34.7571 96.0421 34.75C94.9488 34.7394 93.859 34.7288 92.7658 34.7146C92.0864 34.7075 91.407 34.7004 90.7311 34.6968C90.4241 34.6968 90.1206 34.6933 89.8068 34.6897C89.3999 34.6897 89.3999 34.6897 88.986 34.6862C88.3687 34.6401 88.3687 34.6401 88.0238 34.2853C87.9997 33.5083 87.9962 32.7312 88.0031 31.9578C88.0066 31.532 88.01 31.1063 88.01 30.6699C88.0169 30.3399 88.0204 30.01 88.0238 29.6729C88.3687 29.6693 88.7136 29.6658 89.0688 29.6623C90.3517 29.6481 91.6346 29.6268 92.921 29.5984C93.4728 29.5877 94.028 29.5806 94.5833 29.5771C95.3834 29.57 96.1835 29.5523 96.9836 29.5345C97.3526 29.5345 97.3526 29.5345 97.7285 29.5345C99.4735 29.4813 100.463 29.013 101.819 27.8989C102.967 26.5933 103.16 25.5927 103.284 23.8613C103.188 22.4173 102.957 21.6438 102.164 20.4482C100.55 19.4015 99.1183 19.2206 97.2526 19.2028C96.987 19.1957 96.7215 19.1886 96.449 19.1815C95.6075 19.1638 94.7695 19.1532 93.928 19.139C93.359 19.1283 92.7865 19.1141 92.214 19.1035C90.8173 19.0716 89.4206 19.0503 88.0238 19.029C88.0238 17.3898 88.0238 15.7507 88.0238 14.0618Z" fill="white"/>
<path d="M152.793 41C154.345 41.7753 154.345 41.7753 154.924 42.8781C155.117 43.2296 155.117 43.2296 155.314 43.5914C155.507 43.9601 155.507 43.9601 155.703 44.3392C156.479 45.7968 157.245 47.1959 158.238 48.5226C159 49.615 159 49.615 159 50.6488C157.052 50.9555 155.055 51.2553 153.138 50.6488C151.086 49.105 149.614 46.5584 149 44.1014C150.252 43.0779 151.503 42.0545 152.793 41Z" fill="white"/>
<rect y="73" width="98" height="1" fill="#D9D9D9"/>
<rect x="184" y="73" width="98" height="1" fill="#D9D9D9"/>
<path d="M108.48 80V65.4H112.72C117.46 65.4 120.38 68.56 120.38 72.7C120.38 76.86 117.18 80 112.8 80H108.48ZM112.5 67.4H110.66V77.98H112.58C115.94 77.98 118.18 75.7 118.18 72.7C118.18 69.64 116.16 67.4 112.5 67.4ZM128.114 80V65.4H137.674V67.48H130.254V71.64H137.674V73.72H130.254V77.9H137.674V80H128.114ZM150.238 80L144.598 65.4H146.898L151.338 77.18L155.758 65.4H158.078L152.438 80H150.238ZM170.004 80.2C166.964 80.2 165.044 79 163.664 77.12L165.564 75.62C166.624 77.34 168.104 78.14 169.944 78.14C171.904 78.14 172.924 77.18 172.924 75.86C172.924 74.12 171.064 73.78 169.104 73.36C166.844 72.9 164.444 72.3 164.444 69.38C164.444 67.1 166.524 65.2 169.464 65.2C171.964 65.2 173.604 66.1 175.024 67.7L173.224 69.12C172.364 67.96 171.364 67.18 169.464 67.18C167.504 67.18 166.684 68.1 166.684 69.36C166.684 70.84 168.404 71.12 170.304 71.52C172.604 72 175.164 72.66 175.164 75.84C175.164 78.08 173.324 80.2 170.004 80.2Z" fill="white"/>
</svg>
